<svg width="270" height="174" viewBox="0 0 270 174" fill="none" xmlns="http://www.w3.org/2000/svg">
<path fill-rule="evenodd" clip-rule="evenodd" d="M157.523 56.4324C157.791 56.5584 158.008 56.7054 157.825 56.8043C157.591 56.9241 157.528 56.7636 157.523 56.4324Z" fill="#4D2C5E"/>
<path fill-rule="evenodd" clip-rule="evenodd" d="M249.798 100.828C251.397 98.3496 253.166 95.8063 255.01 93.6051C257.898 90.1847 260.891 87.5519 263.892 86.7939C265.277 86.2589 266.83 86.9044 267.336 88.2215C267.86 89.5372 267.147 91.0428 265.761 91.5613C265.125 91.8986 264.646 92.5044 264.083 93.1507C262.747 94.6606 261.71 96.7422 260.598 98.9962C259.182 101.874 257.957 105.018 256.743 107.811C255.651 110.346 254.555 112.582 253.572 114.194C252.029 116.734 250.16 118.058 248.877 118.568C248.539 118.697 242.579 119.296 241.54 114.241C241.174 112.43 240.493 107.792 240.46 107.563C240.194 104.682 239.64 99.3686 238.175 94.9313C237.715 93.5272 237.242 92.1907 236.563 91.1375C236.425 91.1494 236.287 91.1614 236.148 91.1568C234.033 91.1576 232.378 89.5251 232.413 87.4973C232.357 86.4233 233.008 84.5411 233.63 83.7403C234.842 82.1913 236.505 81.9144 238.529 82.6021C241.281 83.5419 243.617 85.9951 245.52 89.2326C247.505 92.6456 248.884 97.0904 249.798 100.828ZM244.916 109.069C244.606 109.61 244.315 109.918 244.02 109.661C243.688 109.374 244.473 109.19 244.916 109.069Z" fill="#4D2C5E"/>
<path fill-rule="evenodd" clip-rule="evenodd" d="M246.589 110.998C245.125 110.741 244.197 109.404 244.484 107.995C247.581 91.3344 245.325 77.4555 237.897 66.7095C230.662 56.2469 218.448 48.9339 201.683 44.9332C197.994 44.0187 191.184 43.3413 183.898 43.6056C181.764 48.8598 178.28 53.7309 174.343 57.6071C168.528 63.3303 161.703 66.5063 157.166 66.449C154.654 66.4166 152.559 65.6142 150.891 64.1578C148.759 62.2914 147.1 58.9333 147.766 53.3726C148.705 45.6871 154.079 40.4023 161.921 37.305C166.046 35.6803 170.896 34.7099 175.865 34.2127C176.17 30.7678 175.306 27.3074 172.55 24.2277C166.768 17.6747 156.853 16.4658 146.936 17.5084C138.35 18.4022 126.299 20.6135 119.678 26.5399C117.428 28.5525 116.009 31.01 112.587 30.4226C107.315 29.5453 108.653 24.6434 111.741 21.8745C118.378 15.9301 129.022 12.5067 137.562 10.4329C153.268 6.60425 170.504 7.54584 180.118 17.8856C184.6 22.7503 186.302 28.2726 186.104 33.7927C193.692 33.869 200.59 34.8057 204.462 35.8544C223.409 41.1835 236.894 50.2541 244.571 62.5961C252.247 74.9215 254.219 90.5092 249.776 108.904C249.471 110.314 248.054 111.254 246.589 110.998ZM170.507 45.3493C167.901 45.9919 165.502 46.8501 163.453 47.9948C160.851 49.4542 158.877 51.4262 158.534 54.3241C158.48 54.8124 158.366 55.4392 158.313 55.9275C159.335 55.5887 161.308 54.8675 162.71 53.9457C165.828 51.8746 169.066 48.7426 171.571 45.107C171.192 45.1732 170.849 45.2529 170.507 45.3493Z" fill="#4D2C5E"/>
<path d="M129.174 128.922L23.5352 152.646L28.1421 173.553L133.781 149.829L129.174 128.922Z" fill="#FDC00F"/>
<path d="M56.3752 145.114L34.4043 150.071L39.0248 171.135L60.9957 166.179L56.3752 145.114Z" fill="#FFF2CF"/>
<path d="M63.9861 143.413L59.4414 144.434L64.0961 165.565L68.6407 164.544L63.9861 143.413Z" fill="#FFF2CF"/>
<path d="M135.688 105.276L30.0488 129L34.6557 149.906L140.295 126.183L135.688 105.276Z" fill="#16B6C6"/>
<path d="M62.9084 121.463L40.9375 126.42L45.558 147.485L67.5289 142.528L62.9084 121.463Z" fill="#118995"/>
<path d="M70.5232 119.762L65.9785 120.783L70.6332 141.914L75.1779 140.893L70.5232 119.762Z" fill="#118995"/>
<path d="M126.963 85.0353L21.3242 108.759L25.9311 129.666L131.57 105.942L126.963 85.0353Z" fill="#184F78"/>
<path d="M54.1643 101.227L32.1934 106.184L36.8138 127.249L58.7847 122.292L54.1643 101.227Z" fill="#D1DCE4"/>
<path d="M61.8005 99.5217L57.2559 100.543L61.9105 121.674L66.4552 120.653L61.8005 99.5217Z" fill="#D1DCE4"/>
<path d="M80.1844 43.9232C75.1335 50.1826 64.8174 52.2495 64.8174 52.2495C64.8174 52.2495 62.7062 44.1583 67.7788 37.894C72.8297 31.6346 83.1458 29.5677 83.1458 29.5677C83.1458 29.5677 85.2569 37.6588 80.1844 43.9232Z" fill="#184F78"/>
<path d="M80.9683 32.3008C80.9683 32.3008 80.3407 33.4907 79.1871 35.1901C78.0552 36.8846 76.4233 39.1033 74.6874 41.2632C72.9515 43.4232 71.0858 45.5097 69.6031 47.0576C68.1421 48.6005 67.0295 49.5509 67.0295 49.5509C67.0295 49.5509 67.6571 48.3609 68.8107 46.6615C69.9426 44.967 71.5746 42.7483 73.3104 40.5884C75.0463 38.4285 76.912 36.3419 78.399 34.8136C79.8601 33.2707 80.9683 32.3008 80.9683 32.3008Z" fill="#467293"/>
<path d="M64.9353 52.0579C39.9393 51.8882 32.1623 68.5245 39.9436 82.9616C46.0502 94.3243 60.4887 102.592 74.5317 95.8645C90.0806 95.9076 99.6841 82.2086 100.471 69.2886C101.492 52.8633 87.5248 41.1388 64.9353 52.0579Z" fill="#FC611F"/>
<path opacity="0.2" d="M23.5391 152.448L129.071 128.926L130.096 133.544L23.5391 152.448Z" fill="black"/>
<path opacity="0.2" d="M30.0469 128.803L135.6 105.275L136.626 109.893L30.0469 128.803Z" fill="black"/>
<path opacity="0.3" d="M61.1285 98.0947C60.7298 96.9058 60.3874 95.663 60.11 94.4056C56.1045 76.2522 65.1129 57.9637 81.2903 47.7581C76.5569 47.7269 71.0658 48.9997 64.9254 51.9644C39.9457 51.7317 32.2146 68.3936 40.026 82.8892C44.1591 90.6015 52.09 96.8847 61.1285 98.0947Z" fill="white"/>
</svg>
